<mxfile host="app.diagrams.net" agent="Mozilla/5.0 (Windows NT 10.0; Win64; x64) AppleWebKit/537.36 (KHTML, like Gecko) Chrome/130.0.0.0 Safari/537.36" version="24.8.4">
  <diagram id="XOnag8xoFiaOOmy9v_93" name="Page-1">
    <mxGraphModel dx="1257" dy="657" grid="1" gridSize="10" guides="1" tooltips="1" connect="1" arrows="1" fold="1" page="1" pageScale="1" pageWidth="1500" pageHeight="3000" math="0" shadow="0">
      <root>
        <mxCell id="_vKOgibNYJb6RkX7hGH7-0" />
        <mxCell id="_vKOgibNYJb6RkX7hGH7-1" parent="_vKOgibNYJb6RkX7hGH7-0" />
        <mxCell id="_vKOgibNYJb6RkX7hGH7-75" style="edgeStyle=none;rounded=0;jumpStyle=arc;orthogonalLoop=1;jettySize=auto;html=1;dashed=1;dashPattern=1 4;fontSize=12;fontColor=#000000;" parent="_vKOgibNYJb6RkX7hGH7-1" edge="1">
          <mxGeometry relative="1" as="geometry">
            <mxPoint x="1218.4110639798687" y="714.2055319899343" as="targetPoint" />
          </mxGeometry>
        </mxCell>
        <mxCell id="_vKOgibNYJb6RkX7hGH7-76" value="extends" style="edgeLabel;html=1;align=center;verticalAlign=middle;resizable=0;points=[];" parent="_vKOgibNYJb6RkX7hGH7-75" vertex="1" connectable="0">
          <mxGeometry x="0.1401" relative="1" as="geometry">
            <mxPoint as="offset" />
          </mxGeometry>
        </mxCell>
        <mxCell id="_vKOgibNYJb6RkX7hGH7-77" style="edgeStyle=none;rounded=0;jumpStyle=arc;orthogonalLoop=1;jettySize=auto;html=1;dashed=1;dashPattern=1 4;fontSize=12;fontColor=#000000;" parent="_vKOgibNYJb6RkX7hGH7-1" edge="1">
          <mxGeometry relative="1" as="geometry">
            <mxPoint x="1353.6553643711109" y="777.1503217172221" as="targetPoint" />
          </mxGeometry>
        </mxCell>
        <mxCell id="_vKOgibNYJb6RkX7hGH7-78" value="extends" style="edgeLabel;html=1;align=center;verticalAlign=middle;resizable=0;points=[];" parent="_vKOgibNYJb6RkX7hGH7-77" vertex="1" connectable="0">
          <mxGeometry x="-0.0124" relative="1" as="geometry">
            <mxPoint as="offset" />
          </mxGeometry>
        </mxCell>
        <mxCell id="_vKOgibNYJb6RkX7hGH7-119" value="Authentication and Account Use Cases" style="text;html=1;strokeColor=default;fillColor=default;align=center;verticalAlign=middle;whiteSpace=wrap;rounded=1;fontSize=12;fontStyle=3;fontFamily=cascadia code;" parent="_vKOgibNYJb6RkX7hGH7-1" vertex="1">
          <mxGeometry x="520" y="690" width="440" height="20" as="geometry" />
        </mxCell>
        <mxCell id="7ZOL0Kw116GFm8CpVeHd-9" style="edgeStyle=none;rounded=0;orthogonalLoop=1;jettySize=auto;html=1;fontSize=12;fontColor=#000000;dashed=1;dashPattern=1 4;startArrow=classic;startFill=1;endArrow=none;endFill=0;" parent="_vKOgibNYJb6RkX7hGH7-1" edge="1">
          <mxGeometry relative="1" as="geometry">
            <mxPoint x="632.0776069340225" y="1158.626603542381" as="sourcePoint" />
          </mxGeometry>
        </mxCell>
        <mxCell id="7ZOL0Kw116GFm8CpVeHd-10" value="precedes" style="edgeLabel;html=1;align=center;verticalAlign=middle;resizable=0;points=[];" parent="7ZOL0Kw116GFm8CpVeHd-9" vertex="1" connectable="0">
          <mxGeometry x="-0.135" y="-2" relative="1" as="geometry">
            <mxPoint as="offset" />
          </mxGeometry>
        </mxCell>
        <mxCell id="7ZOL0Kw116GFm8CpVeHd-11" style="edgeStyle=none;rounded=0;jumpStyle=arc;orthogonalLoop=1;jettySize=auto;html=1;dashed=1;dashPattern=1 4;fontSize=12;fontColor=#000000;" parent="_vKOgibNYJb6RkX7hGH7-1" edge="1">
          <mxGeometry relative="1" as="geometry">
            <mxPoint x="910.5472994569632" y="1164.3689863641055" as="targetPoint" />
          </mxGeometry>
        </mxCell>
        <mxCell id="7ZOL0Kw116GFm8CpVeHd-12" value="precedes" style="edgeLabel;html=1;align=center;verticalAlign=middle;resizable=0;points=[];fontSize=12;" parent="7ZOL0Kw116GFm8CpVeHd-11" vertex="1" connectable="0">
          <mxGeometry x="-0.6637" y="-1" relative="1" as="geometry">
            <mxPoint as="offset" />
          </mxGeometry>
        </mxCell>
        <mxCell id="7ZOL0Kw116GFm8CpVeHd-84" style="edgeStyle=orthogonalEdgeStyle;rounded=0;orthogonalLoop=1;jettySize=auto;html=1;entryX=0;entryY=0.5;entryDx=0;entryDy=0;" parent="_vKOgibNYJb6RkX7hGH7-1" edge="1">
          <mxGeometry relative="1" as="geometry">
            <mxPoint x="889.9998911563639" y="785.047619047619" as="sourcePoint" />
          </mxGeometry>
        </mxCell>
        <mxCell id="7ZOL0Kw116GFm8CpVeHd-86" style="edgeStyle=orthogonalEdgeStyle;rounded=0;orthogonalLoop=1;jettySize=auto;html=1;entryX=0.5;entryY=0;entryDx=0;entryDy=0;" parent="_vKOgibNYJb6RkX7hGH7-1" edge="1">
          <mxGeometry relative="1" as="geometry">
            <mxPoint x="830" y="810" as="sourcePoint" />
          </mxGeometry>
        </mxCell>
        <mxCell id="0e71avUAFB-CbFEtWuvY-1" value="" style="rounded=1;whiteSpace=wrap;html=1;fillColor=default;" parent="_vKOgibNYJb6RkX7hGH7-1" vertex="1">
          <mxGeometry x="600" y="800" width="280" height="960" as="geometry" />
        </mxCell>
        <mxCell id="0e71avUAFB-CbFEtWuvY-2" value="Admin Use Cases" style="text;html=1;strokeColor=default;fillColor=default;align=center;verticalAlign=middle;whiteSpace=wrap;rounded=1;fontSize=12;fontStyle=3;fontFamily=cascadia code;" parent="_vKOgibNYJb6RkX7hGH7-1" vertex="1">
          <mxGeometry x="520" y="1810" width="440" height="20" as="geometry" />
        </mxCell>
        <mxCell id="0e71avUAFB-CbFEtWuvY-5" value="Admin" style="shape=umlActor;verticalLabelPosition=bottom;verticalAlign=top;html=1;outlineConnect=0;rounded=1;strokeWidth=1;fillColor=#0066CC;strokeColor=#6c8ebf;" parent="_vKOgibNYJb6RkX7hGH7-1" vertex="1">
          <mxGeometry x="1000" y="1184" width="30" height="60" as="geometry" />
        </mxCell>
        <mxCell id="0e71avUAFB-CbFEtWuvY-7" value="View Admin Dashboard" style="ellipse;whiteSpace=wrap;html=1;rounded=1;strokeWidth=1;fontSize=12;fillColor=#00FF00;strokeColor=#82b366;" parent="_vKOgibNYJb6RkX7hGH7-1" vertex="1">
          <mxGeometry x="635" y="829" width="210" height="50" as="geometry" />
        </mxCell>
        <mxCell id="0e71avUAFB-CbFEtWuvY-8" value="Liset and Filter Users" style="ellipse;whiteSpace=wrap;html=1;rounded=1;strokeWidth=1;fontSize=12;fillColor=#00FF00;strokeColor=#82b366;" parent="_vKOgibNYJb6RkX7hGH7-1" vertex="1">
          <mxGeometry x="635" y="889" width="210" height="50" as="geometry" />
        </mxCell>
        <mxCell id="0e71avUAFB-CbFEtWuvY-9" value="See Users Profiles" style="ellipse;whiteSpace=wrap;html=1;rounded=1;strokeWidth=1;fontSize=12;fillColor=#00FF00;strokeColor=#82b366;" parent="_vKOgibNYJb6RkX7hGH7-1" vertex="1">
          <mxGeometry x="635" y="949" width="210" height="50" as="geometry" />
        </mxCell>
        <mxCell id="0e71avUAFB-CbFEtWuvY-10" value="Delete User Account" style="ellipse;whiteSpace=wrap;html=1;rounded=1;strokeWidth=1;fontSize=12;fillColor=#00FF00;strokeColor=#82b366;" parent="_vKOgibNYJb6RkX7hGH7-1" vertex="1">
          <mxGeometry x="640" y="1009" width="210" height="50" as="geometry" />
        </mxCell>
        <mxCell id="0e71avUAFB-CbFEtWuvY-15" value="Liset and Filter Authors" style="ellipse;whiteSpace=wrap;html=1;rounded=1;strokeWidth=1;fontSize=12;fillColor=#00FF00;strokeColor=#82b366;" parent="_vKOgibNYJb6RkX7hGH7-1" vertex="1">
          <mxGeometry x="635" y="1069" width="210" height="50" as="geometry" />
        </mxCell>
        <mxCell id="0e71avUAFB-CbFEtWuvY-16" value="See Author Profiles" style="ellipse;whiteSpace=wrap;html=1;rounded=1;strokeWidth=1;fontSize=12;fillColor=#00FF00;strokeColor=#82b366;" parent="_vKOgibNYJb6RkX7hGH7-1" vertex="1">
          <mxGeometry x="635" y="1129" width="210" height="50" as="geometry" />
        </mxCell>
        <mxCell id="0e71avUAFB-CbFEtWuvY-17" value="Delete Author Account" style="ellipse;whiteSpace=wrap;html=1;rounded=1;strokeWidth=1;fontSize=12;fillColor=#00FF00;strokeColor=#82b366;" parent="_vKOgibNYJb6RkX7hGH7-1" vertex="1">
          <mxGeometry x="635" y="1189" width="210" height="50" as="geometry" />
        </mxCell>
        <mxCell id="0e71avUAFB-CbFEtWuvY-18" value="Set Authors Permissions" style="ellipse;whiteSpace=wrap;html=1;rounded=1;strokeWidth=1;fontSize=12;fillColor=#00FF00;strokeColor=#82b366;" parent="_vKOgibNYJb6RkX7hGH7-1" vertex="1">
          <mxGeometry x="635" y="1249" width="210" height="50" as="geometry" />
        </mxCell>
        <mxCell id="0e71avUAFB-CbFEtWuvY-19" value="Liset and Filter Categories" style="ellipse;whiteSpace=wrap;html=1;rounded=1;strokeWidth=1;fontSize=12;fillColor=#00FF00;strokeColor=#82b366;" parent="_vKOgibNYJb6RkX7hGH7-1" vertex="1">
          <mxGeometry x="635" y="1309" width="210" height="50" as="geometry" />
        </mxCell>
        <mxCell id="0e71avUAFB-CbFEtWuvY-20" value="GRUD on Categories" style="ellipse;whiteSpace=wrap;html=1;rounded=1;strokeWidth=1;fontSize=12;fillColor=#00FF00;strokeColor=#82b366;" parent="_vKOgibNYJb6RkX7hGH7-1" vertex="1">
          <mxGeometry x="635" y="1369" width="210" height="50" as="geometry" />
        </mxCell>
        <mxCell id="0e71avUAFB-CbFEtWuvY-23" value="Liset and Filter Articles" style="ellipse;whiteSpace=wrap;html=1;rounded=1;strokeWidth=1;fontSize=12;fillColor=#00FF00;strokeColor=#82b366;" parent="_vKOgibNYJb6RkX7hGH7-1" vertex="1">
          <mxGeometry x="635" y="1429" width="210" height="50" as="geometry" />
        </mxCell>
        <mxCell id="0e71avUAFB-CbFEtWuvY-24" value="GRUD on Articles" style="ellipse;whiteSpace=wrap;html=1;rounded=1;strokeWidth=1;fontSize=12;fillColor=#00FF00;strokeColor=#82b366;" parent="_vKOgibNYJb6RkX7hGH7-1" vertex="1">
          <mxGeometry x="635" y="1489" width="210" height="50" as="geometry" />
        </mxCell>
        <mxCell id="0e71avUAFB-CbFEtWuvY-27" style="edgeStyle=none;rounded=0;jumpStyle=arc;orthogonalLoop=1;jettySize=auto;html=1;fontSize=12;fontColor=#000000;exitX=0;exitY=0.3333333333333333;exitDx=0;exitDy=0;exitPerimeter=0;entryX=1;entryY=0.5;entryDx=0;entryDy=0;" parent="_vKOgibNYJb6RkX7hGH7-1" source="0e71avUAFB-CbFEtWuvY-5" target="0e71avUAFB-CbFEtWuvY-7" edge="1">
          <mxGeometry relative="1" as="geometry">
            <mxPoint x="990" y="1104" as="sourcePoint" />
            <mxPoint x="910" y="889" as="targetPoint" />
          </mxGeometry>
        </mxCell>
        <mxCell id="0e71avUAFB-CbFEtWuvY-28" style="edgeStyle=none;rounded=0;jumpStyle=arc;orthogonalLoop=1;jettySize=auto;html=1;fontSize=12;fontColor=#000000;exitX=0;exitY=0.3333333333333333;exitDx=0;exitDy=0;exitPerimeter=0;entryX=1;entryY=0.5;entryDx=0;entryDy=0;" parent="_vKOgibNYJb6RkX7hGH7-1" source="0e71avUAFB-CbFEtWuvY-5" target="0e71avUAFB-CbFEtWuvY-8" edge="1">
          <mxGeometry relative="1" as="geometry">
            <mxPoint x="1018" y="1165" as="sourcePoint" />
            <mxPoint x="855" y="864" as="targetPoint" />
          </mxGeometry>
        </mxCell>
        <mxCell id="0e71avUAFB-CbFEtWuvY-29" style="edgeStyle=none;rounded=0;jumpStyle=arc;orthogonalLoop=1;jettySize=auto;html=1;fontSize=12;fontColor=#000000;exitX=0;exitY=0.3333333333333333;exitDx=0;exitDy=0;exitPerimeter=0;entryX=1;entryY=0.5;entryDx=0;entryDy=0;" parent="_vKOgibNYJb6RkX7hGH7-1" source="0e71avUAFB-CbFEtWuvY-5" target="0e71avUAFB-CbFEtWuvY-9" edge="1">
          <mxGeometry relative="1" as="geometry">
            <mxPoint x="1010" y="1179" as="sourcePoint" />
            <mxPoint x="855" y="924" as="targetPoint" />
          </mxGeometry>
        </mxCell>
        <mxCell id="0e71avUAFB-CbFEtWuvY-30" style="edgeStyle=none;rounded=0;jumpStyle=arc;orthogonalLoop=1;jettySize=auto;html=1;fontSize=12;fontColor=#000000;entryX=1;entryY=0.5;entryDx=0;entryDy=0;exitX=0;exitY=0.3333333333333333;exitDx=0;exitDy=0;exitPerimeter=0;" parent="_vKOgibNYJb6RkX7hGH7-1" source="0e71avUAFB-CbFEtWuvY-5" target="0e71avUAFB-CbFEtWuvY-10" edge="1">
          <mxGeometry relative="1" as="geometry">
            <mxPoint x="1000" y="1169" as="sourcePoint" />
            <mxPoint x="855" y="984" as="targetPoint" />
          </mxGeometry>
        </mxCell>
        <mxCell id="0e71avUAFB-CbFEtWuvY-31" style="edgeStyle=none;rounded=0;jumpStyle=arc;orthogonalLoop=1;jettySize=auto;html=1;fontSize=12;fontColor=#000000;entryX=1;entryY=0.5;entryDx=0;entryDy=0;exitX=0;exitY=0.3333333333333333;exitDx=0;exitDy=0;exitPerimeter=0;" parent="_vKOgibNYJb6RkX7hGH7-1" source="0e71avUAFB-CbFEtWuvY-5" target="0e71avUAFB-CbFEtWuvY-15" edge="1">
          <mxGeometry relative="1" as="geometry">
            <mxPoint x="1000" y="1160" as="sourcePoint" />
            <mxPoint x="860" y="1045" as="targetPoint" />
          </mxGeometry>
        </mxCell>
        <mxCell id="0e71avUAFB-CbFEtWuvY-32" style="edgeStyle=none;rounded=0;jumpStyle=arc;orthogonalLoop=1;jettySize=auto;html=1;fontSize=12;fontColor=#000000;entryX=1;entryY=0.5;entryDx=0;entryDy=0;exitX=0;exitY=0.3333333333333333;exitDx=0;exitDy=0;exitPerimeter=0;" parent="_vKOgibNYJb6RkX7hGH7-1" source="0e71avUAFB-CbFEtWuvY-5" target="0e71avUAFB-CbFEtWuvY-16" edge="1">
          <mxGeometry relative="1" as="geometry">
            <mxPoint x="1010" y="1179" as="sourcePoint" />
            <mxPoint x="855" y="1104" as="targetPoint" />
          </mxGeometry>
        </mxCell>
        <mxCell id="0e71avUAFB-CbFEtWuvY-33" style="edgeStyle=none;rounded=0;jumpStyle=arc;orthogonalLoop=1;jettySize=auto;html=1;fontSize=12;fontColor=#000000;entryX=1;entryY=0.5;entryDx=0;entryDy=0;exitX=0;exitY=0.3333333333333333;exitDx=0;exitDy=0;exitPerimeter=0;" parent="_vKOgibNYJb6RkX7hGH7-1" source="0e71avUAFB-CbFEtWuvY-5" target="0e71avUAFB-CbFEtWuvY-17" edge="1">
          <mxGeometry relative="1" as="geometry">
            <mxPoint x="1010" y="1179" as="sourcePoint" />
            <mxPoint x="855" y="1164" as="targetPoint" />
          </mxGeometry>
        </mxCell>
        <mxCell id="0e71avUAFB-CbFEtWuvY-34" style="edgeStyle=none;rounded=0;jumpStyle=arc;orthogonalLoop=1;jettySize=auto;html=1;fontSize=12;fontColor=#000000;entryX=1;entryY=0.5;entryDx=0;entryDy=0;exitX=0;exitY=0.3333333333333333;exitDx=0;exitDy=0;exitPerimeter=0;" parent="_vKOgibNYJb6RkX7hGH7-1" source="0e71avUAFB-CbFEtWuvY-5" target="0e71avUAFB-CbFEtWuvY-18" edge="1">
          <mxGeometry relative="1" as="geometry">
            <mxPoint x="1010" y="1179" as="sourcePoint" />
            <mxPoint x="855" y="1224" as="targetPoint" />
          </mxGeometry>
        </mxCell>
        <mxCell id="0e71avUAFB-CbFEtWuvY-35" style="edgeStyle=none;rounded=0;jumpStyle=arc;orthogonalLoop=1;jettySize=auto;html=1;fontSize=12;fontColor=#000000;entryX=1;entryY=0.5;entryDx=0;entryDy=0;exitX=0;exitY=0.3333333333333333;exitDx=0;exitDy=0;exitPerimeter=0;" parent="_vKOgibNYJb6RkX7hGH7-1" source="0e71avUAFB-CbFEtWuvY-5" target="0e71avUAFB-CbFEtWuvY-19" edge="1">
          <mxGeometry relative="1" as="geometry">
            <mxPoint x="1010" y="1179" as="sourcePoint" />
            <mxPoint x="855" y="1284" as="targetPoint" />
          </mxGeometry>
        </mxCell>
        <mxCell id="0e71avUAFB-CbFEtWuvY-36" style="edgeStyle=none;rounded=0;jumpStyle=arc;orthogonalLoop=1;jettySize=auto;html=1;fontSize=12;fontColor=#000000;entryX=1;entryY=0.5;entryDx=0;entryDy=0;exitX=0;exitY=0.3333333333333333;exitDx=0;exitDy=0;exitPerimeter=0;" parent="_vKOgibNYJb6RkX7hGH7-1" source="0e71avUAFB-CbFEtWuvY-5" target="0e71avUAFB-CbFEtWuvY-20" edge="1">
          <mxGeometry relative="1" as="geometry">
            <mxPoint x="1010" y="1179" as="sourcePoint" />
            <mxPoint x="855" y="1344" as="targetPoint" />
          </mxGeometry>
        </mxCell>
        <mxCell id="0e71avUAFB-CbFEtWuvY-37" style="edgeStyle=none;rounded=0;jumpStyle=arc;orthogonalLoop=1;jettySize=auto;html=1;fontSize=12;fontColor=#000000;entryX=1;entryY=0.5;entryDx=0;entryDy=0;exitX=0;exitY=0.3333333333333333;exitDx=0;exitDy=0;exitPerimeter=0;" parent="_vKOgibNYJb6RkX7hGH7-1" source="0e71avUAFB-CbFEtWuvY-5" target="0e71avUAFB-CbFEtWuvY-23" edge="1">
          <mxGeometry relative="1" as="geometry">
            <mxPoint x="1010" y="1179" as="sourcePoint" />
            <mxPoint x="855" y="1404" as="targetPoint" />
          </mxGeometry>
        </mxCell>
        <mxCell id="0e71avUAFB-CbFEtWuvY-38" style="edgeStyle=none;rounded=0;jumpStyle=arc;orthogonalLoop=1;jettySize=auto;html=1;fontSize=12;fontColor=#000000;entryX=1;entryY=0.5;entryDx=0;entryDy=0;exitX=0;exitY=0.3333333333333333;exitDx=0;exitDy=0;exitPerimeter=0;" parent="_vKOgibNYJb6RkX7hGH7-1" source="0e71avUAFB-CbFEtWuvY-5" target="0e71avUAFB-CbFEtWuvY-24" edge="1">
          <mxGeometry relative="1" as="geometry">
            <mxPoint x="1010" y="1179" as="sourcePoint" />
            <mxPoint x="855" y="1464" as="targetPoint" />
          </mxGeometry>
        </mxCell>
        <mxCell id="0e71avUAFB-CbFEtWuvY-42" value="" style="rounded=1;whiteSpace=wrap;html=1;" parent="_vKOgibNYJb6RkX7hGH7-1" vertex="1">
          <mxGeometry x="450" y="1920" width="640" height="880" as="geometry" />
        </mxCell>
        <mxCell id="0e71avUAFB-CbFEtWuvY-43" value="Main User Use Cases" style="text;html=1;strokeColor=default;fillColor=default;align=center;verticalAlign=middle;whiteSpace=wrap;rounded=1;fontSize=12;fontStyle=3" parent="_vKOgibNYJb6RkX7hGH7-1" vertex="1">
          <mxGeometry x="559" y="2850" width="440" height="20" as="geometry" />
        </mxCell>
        <mxCell id="0e71avUAFB-CbFEtWuvY-44" value="Admin" style="shape=umlActor;verticalLabelPosition=bottom;verticalAlign=top;html=1;outlineConnect=0;rounded=1;strokeWidth=1;fillColor=#0066CC;strokeColor=#6c8ebf;" parent="_vKOgibNYJb6RkX7hGH7-1" vertex="1">
          <mxGeometry x="1180" y="2177" width="30" height="60" as="geometry" />
        </mxCell>
        <mxCell id="0e71avUAFB-CbFEtWuvY-45" value="View His Account and Profile" style="ellipse;whiteSpace=wrap;html=1;rounded=1;strokeWidth=1;fontSize=12;fillColor=#00FF00;strokeColor=#82b366;" parent="_vKOgibNYJb6RkX7hGH7-1" vertex="1">
          <mxGeometry x="493" y="1940" width="210" height="50" as="geometry" />
        </mxCell>
        <mxCell id="0e71avUAFB-CbFEtWuvY-46" value="View Profile.ReadingList" style="ellipse;whiteSpace=wrap;html=1;rounded=1;strokeWidth=1;fontSize=12;fillColor=#00FF00;strokeColor=#82b366;" parent="_vKOgibNYJb6RkX7hGH7-1" vertex="1">
          <mxGeometry x="493" y="2000" width="210" height="50" as="geometry" />
        </mxCell>
        <mxCell id="0e71avUAFB-CbFEtWuvY-47" value="View Profile.NewsLetter" style="ellipse;whiteSpace=wrap;html=1;rounded=1;strokeWidth=1;fontSize=12;fillColor=#00FF00;strokeColor=#82b366;" parent="_vKOgibNYJb6RkX7hGH7-1" vertex="1">
          <mxGeometry x="493" y="2060" width="210" height="50" as="geometry" />
        </mxCell>
        <mxCell id="0e71avUAFB-CbFEtWuvY-48" value="View Profile.Settings" style="ellipse;whiteSpace=wrap;html=1;rounded=1;strokeWidth=1;fontSize=12;fillColor=#00FF00;strokeColor=#82b366;" parent="_vKOgibNYJb6RkX7hGH7-1" vertex="1">
          <mxGeometry x="498" y="2120" width="210" height="50" as="geometry" />
        </mxCell>
        <mxCell id="0e71avUAFB-CbFEtWuvY-49" value="View Profile.CreateArticle" style="ellipse;whiteSpace=wrap;html=1;rounded=1;strokeWidth=1;fontSize=12;fillColor=#00FF00;strokeColor=#82b366;" parent="_vKOgibNYJb6RkX7hGH7-1" vertex="1">
          <mxGeometry x="493" y="2180" width="210" height="50" as="geometry" />
        </mxCell>
        <mxCell id="0e71avUAFB-CbFEtWuvY-50" value="View Each Category Articles" style="ellipse;whiteSpace=wrap;html=1;rounded=1;strokeWidth=1;fontSize=12;fillColor=#00FF00;strokeColor=#82b366;" parent="_vKOgibNYJb6RkX7hGH7-1" vertex="1">
          <mxGeometry x="493" y="2240" width="210" height="50" as="geometry" />
        </mxCell>
        <mxCell id="0e71avUAFB-CbFEtWuvY-51" value="Search for Articles" style="ellipse;whiteSpace=wrap;html=1;rounded=1;strokeWidth=1;fontSize=12;fillColor=#00FF00;strokeColor=#82b366;" parent="_vKOgibNYJb6RkX7hGH7-1" vertex="1">
          <mxGeometry x="493" y="2300" width="210" height="50" as="geometry" />
        </mxCell>
        <mxCell id="0e71avUAFB-CbFEtWuvY-52" value="View Article" style="ellipse;whiteSpace=wrap;html=1;rounded=1;strokeWidth=1;fontSize=12;fillColor=#00FF00;strokeColor=#82b366;" parent="_vKOgibNYJb6RkX7hGH7-1" vertex="1">
          <mxGeometry x="493" y="2360" width="210" height="50" as="geometry" />
        </mxCell>
        <mxCell id="0e71avUAFB-CbFEtWuvY-53" value="View Home" style="ellipse;whiteSpace=wrap;html=1;rounded=1;strokeWidth=1;fontSize=12;fillColor=#00FF00;strokeColor=#82b366;" parent="_vKOgibNYJb6RkX7hGH7-1" vertex="1">
          <mxGeometry x="493" y="2420" width="210" height="50" as="geometry" />
        </mxCell>
        <mxCell id="0e71avUAFB-CbFEtWuvY-54" value="View Suggested Articles" style="ellipse;whiteSpace=wrap;html=1;rounded=1;strokeWidth=1;fontSize=12;fillColor=#00FF00;strokeColor=#82b366;" parent="_vKOgibNYJb6RkX7hGH7-1" vertex="1">
          <mxGeometry x="493" y="2480" width="210" height="50" as="geometry" />
        </mxCell>
        <mxCell id="0e71avUAFB-CbFEtWuvY-55" value="View Trend Articles" style="ellipse;whiteSpace=wrap;html=1;rounded=1;strokeWidth=1;fontSize=12;fillColor=#00FF00;strokeColor=#82b366;" parent="_vKOgibNYJb6RkX7hGH7-1" vertex="1">
          <mxGeometry x="493" y="2540" width="210" height="50" as="geometry" />
        </mxCell>
        <mxCell id="0e71avUAFB-CbFEtWuvY-56" value="View Latest Articles" style="ellipse;whiteSpace=wrap;html=1;rounded=1;strokeWidth=1;fontSize=12;fillColor=#00FF00;strokeColor=#82b366;" parent="_vKOgibNYJb6RkX7hGH7-1" vertex="1">
          <mxGeometry x="493" y="2600" width="210" height="50" as="geometry" />
        </mxCell>
        <mxCell id="0e71avUAFB-CbFEtWuvY-75" style="edgeStyle=orthogonalEdgeStyle;rounded=0;orthogonalLoop=1;jettySize=auto;html=1;entryX=0.5;entryY=0;entryDx=0;entryDy=0;entryPerimeter=0;" parent="_vKOgibNYJb6RkX7hGH7-1" target="0e71avUAFB-CbFEtWuvY-78" edge="1">
          <mxGeometry relative="1" as="geometry">
            <mxPoint x="159" y="2289" as="targetPoint" />
            <Array as="points">
              <mxPoint x="206" y="2279" />
              <mxPoint x="135" y="2279" />
            </Array>
            <mxPoint x="206.04761904761904" y="2259" as="sourcePoint" />
          </mxGeometry>
        </mxCell>
        <mxCell id="0e71avUAFB-CbFEtWuvY-76" style="edgeStyle=orthogonalEdgeStyle;rounded=0;orthogonalLoop=1;jettySize=auto;html=1;entryX=0.5;entryY=0;entryDx=0;entryDy=0;entryPerimeter=0;" parent="_vKOgibNYJb6RkX7hGH7-1" source="0e71avUAFB-CbFEtWuvY-77" target="0e71avUAFB-CbFEtWuvY-79" edge="1">
          <mxGeometry relative="1" as="geometry">
            <mxPoint x="250" y="2289" as="targetPoint" />
            <Array as="points">
              <mxPoint x="207" y="2279" />
              <mxPoint x="278" y="2279" />
            </Array>
          </mxGeometry>
        </mxCell>
        <mxCell id="0e71avUAFB-CbFEtWuvY-77" value="User" style="shape=umlActor;verticalLabelPosition=bottom;verticalAlign=top;html=1;fontFamily=Helvetica;fontSize=12;align=center;strokeColor=#82b366;strokeWidth=1;fillColor=#00FF00;" parent="_vKOgibNYJb6RkX7hGH7-1" vertex="1">
          <mxGeometry x="192" y="2199" width="30" height="60" as="geometry" />
        </mxCell>
        <mxCell id="0e71avUAFB-CbFEtWuvY-78" value="Admin" style="shape=umlActor;verticalLabelPosition=bottom;verticalAlign=top;html=1;fontFamily=Helvetica;fontSize=12;align=center;strokeColor=#82b366;strokeWidth=1;fillColor=#00FF00;" parent="_vKOgibNYJb6RkX7hGH7-1" vertex="1">
          <mxGeometry x="120" y="2299" width="30" height="60" as="geometry" />
        </mxCell>
        <mxCell id="0e71avUAFB-CbFEtWuvY-79" value="User" style="shape=umlActor;verticalLabelPosition=bottom;verticalAlign=top;html=1;fontFamily=Helvetica;fontSize=12;align=center;strokeColor=#82b366;strokeWidth=1;fillColor=#00FF00;" parent="_vKOgibNYJb6RkX7hGH7-1" vertex="1">
          <mxGeometry x="263" y="2301" width="30" height="60" as="geometry" />
        </mxCell>
        <mxCell id="0e71avUAFB-CbFEtWuvY-80" value="Author" style="shape=umlActor;verticalLabelPosition=bottom;verticalAlign=top;html=1;fontFamily=Helvetica;fontSize=12;align=center;strokeColor=#82b366;strokeWidth=1;fillColor=#00FF00;" parent="_vKOgibNYJb6RkX7hGH7-1" vertex="1">
          <mxGeometry x="192" y="2300" width="30" height="60" as="geometry" />
        </mxCell>
        <mxCell id="0e71avUAFB-CbFEtWuvY-81" value="Author" style="shape=umlActor;verticalLabelPosition=bottom;verticalAlign=top;html=1;outlineConnect=0;rounded=1;strokeWidth=1;fillColor=#0066CC;strokeColor=#6c8ebf;" parent="_vKOgibNYJb6RkX7hGH7-1" vertex="1">
          <mxGeometry x="1180" y="2312" width="30" height="60" as="geometry" />
        </mxCell>
        <mxCell id="0e71avUAFB-CbFEtWuvY-83" style="edgeStyle=none;rounded=0;jumpStyle=arc;orthogonalLoop=1;jettySize=auto;html=1;fontSize=12;fontColor=#000000;exitX=1;exitY=0.3333333333333333;exitDx=0;exitDy=0;exitPerimeter=0;entryX=0;entryY=0.5;entryDx=0;entryDy=0;" parent="_vKOgibNYJb6RkX7hGH7-1" source="0e71avUAFB-CbFEtWuvY-77" target="0e71avUAFB-CbFEtWuvY-45" edge="1">
          <mxGeometry relative="1" as="geometry">
            <mxPoint x="1190" y="2280" as="sourcePoint" />
            <mxPoint x="713" y="1975" as="targetPoint" />
          </mxGeometry>
        </mxCell>
        <mxCell id="0e71avUAFB-CbFEtWuvY-84" style="edgeStyle=none;rounded=0;jumpStyle=arc;orthogonalLoop=1;jettySize=auto;html=1;fontSize=12;fontColor=#000000;exitX=1;exitY=0.3333333333333333;exitDx=0;exitDy=0;exitPerimeter=0;entryX=0;entryY=0.5;entryDx=0;entryDy=0;" parent="_vKOgibNYJb6RkX7hGH7-1" source="0e71avUAFB-CbFEtWuvY-77" target="0e71avUAFB-CbFEtWuvY-46" edge="1">
          <mxGeometry relative="1" as="geometry">
            <mxPoint x="232" y="2229" as="sourcePoint" />
            <mxPoint x="503" y="1975" as="targetPoint" />
          </mxGeometry>
        </mxCell>
        <mxCell id="0e71avUAFB-CbFEtWuvY-85" style="edgeStyle=none;rounded=0;jumpStyle=arc;orthogonalLoop=1;jettySize=auto;html=1;fontSize=12;fontColor=#000000;exitX=1;exitY=0.3333333333333333;exitDx=0;exitDy=0;exitPerimeter=0;entryX=0;entryY=0.5;entryDx=0;entryDy=0;" parent="_vKOgibNYJb6RkX7hGH7-1" source="0e71avUAFB-CbFEtWuvY-77" target="0e71avUAFB-CbFEtWuvY-47" edge="1">
          <mxGeometry relative="1" as="geometry">
            <mxPoint x="232" y="2229" as="sourcePoint" />
            <mxPoint x="503" y="2035" as="targetPoint" />
          </mxGeometry>
        </mxCell>
        <mxCell id="0e71avUAFB-CbFEtWuvY-86" style="edgeStyle=none;rounded=0;jumpStyle=arc;orthogonalLoop=1;jettySize=auto;html=1;fontSize=12;fontColor=#000000;entryX=0;entryY=0.5;entryDx=0;entryDy=0;" parent="_vKOgibNYJb6RkX7hGH7-1" target="0e71avUAFB-CbFEtWuvY-48" edge="1">
          <mxGeometry relative="1" as="geometry">
            <mxPoint x="220" y="2220" as="sourcePoint" />
            <mxPoint x="503" y="2095" as="targetPoint" />
          </mxGeometry>
        </mxCell>
        <mxCell id="0e71avUAFB-CbFEtWuvY-88" style="edgeStyle=none;rounded=0;jumpStyle=arc;orthogonalLoop=1;jettySize=auto;html=1;fontSize=12;fontColor=#000000;exitX=0;exitY=0.3333333333333333;exitDx=0;exitDy=0;exitPerimeter=0;entryX=1;entryY=1;entryDx=0;entryDy=0;" parent="_vKOgibNYJb6RkX7hGH7-1" source="0e71avUAFB-CbFEtWuvY-81" target="0e71avUAFB-CbFEtWuvY-49" edge="1">
          <mxGeometry relative="1" as="geometry">
            <mxPoint x="232" y="2229" as="sourcePoint" />
            <mxPoint x="503" y="1975" as="targetPoint" />
          </mxGeometry>
        </mxCell>
        <mxCell id="0e71avUAFB-CbFEtWuvY-89" value="Login" style="ellipse;whiteSpace=wrap;html=1;rounded=1;strokeWidth=1;fontSize=12;fillColor=#00FF00;strokeColor=#82b366;" parent="_vKOgibNYJb6RkX7hGH7-1" vertex="1">
          <mxGeometry x="840" y="1940" width="210" height="50" as="geometry" />
        </mxCell>
        <mxCell id="0e71avUAFB-CbFEtWuvY-90" style="edgeStyle=none;rounded=0;jumpStyle=arc;orthogonalLoop=1;jettySize=auto;html=1;dashed=1;dashPattern=1 4;startArrow=none;startFill=0;endArrow=classic;endFill=1;fontSize=12;fontColor=#000000;exitX=1;exitY=0.5;exitDx=0;exitDy=0;entryX=0;entryY=0.5;entryDx=0;entryDy=0;" parent="_vKOgibNYJb6RkX7hGH7-1" source="0e71avUAFB-CbFEtWuvY-45" target="0e71avUAFB-CbFEtWuvY-89" edge="1">
          <mxGeometry relative="1" as="geometry">
            <mxPoint x="752" y="2000" as="sourcePoint" />
            <mxPoint x="748" y="1960" as="targetPoint" />
          </mxGeometry>
        </mxCell>
        <mxCell id="0e71avUAFB-CbFEtWuvY-91" value="precedes" style="edgeLabel;html=1;align=center;verticalAlign=middle;resizable=0;points=[];fontSize=12;" parent="0e71avUAFB-CbFEtWuvY-90" vertex="1" connectable="0">
          <mxGeometry x="0.0983" y="1" relative="1" as="geometry">
            <mxPoint as="offset" />
          </mxGeometry>
        </mxCell>
        <mxCell id="0e71avUAFB-CbFEtWuvY-92" style="edgeStyle=none;rounded=0;jumpStyle=arc;orthogonalLoop=1;jettySize=auto;html=1;dashed=1;dashPattern=1 4;startArrow=none;startFill=0;endArrow=classic;endFill=1;fontSize=12;fontColor=#000000;exitX=1;exitY=0.5;exitDx=0;exitDy=0;entryX=0;entryY=0.5;entryDx=0;entryDy=0;" parent="_vKOgibNYJb6RkX7hGH7-1" source="0e71avUAFB-CbFEtWuvY-46" target="0e71avUAFB-CbFEtWuvY-89" edge="1">
          <mxGeometry relative="1" as="geometry">
            <mxPoint x="713" y="1975" as="sourcePoint" />
            <mxPoint x="850" y="1975" as="targetPoint" />
          </mxGeometry>
        </mxCell>
        <mxCell id="0e71avUAFB-CbFEtWuvY-93" value="precedes" style="edgeLabel;html=1;align=center;verticalAlign=middle;resizable=0;points=[];fontSize=12;" parent="0e71avUAFB-CbFEtWuvY-92" vertex="1" connectable="0">
          <mxGeometry x="0.0983" y="1" relative="1" as="geometry">
            <mxPoint as="offset" />
          </mxGeometry>
        </mxCell>
        <mxCell id="0e71avUAFB-CbFEtWuvY-94" style="edgeStyle=none;rounded=0;jumpStyle=arc;orthogonalLoop=1;jettySize=auto;html=1;dashed=1;dashPattern=1 4;startArrow=none;startFill=0;endArrow=classic;endFill=1;fontSize=12;fontColor=#000000;exitX=1;exitY=0.5;exitDx=0;exitDy=0;entryX=0;entryY=0.5;entryDx=0;entryDy=0;" parent="_vKOgibNYJb6RkX7hGH7-1" source="0e71avUAFB-CbFEtWuvY-47" target="0e71avUAFB-CbFEtWuvY-89" edge="1">
          <mxGeometry relative="1" as="geometry">
            <mxPoint x="713" y="2035" as="sourcePoint" />
            <mxPoint x="840" y="1970" as="targetPoint" />
          </mxGeometry>
        </mxCell>
        <mxCell id="0e71avUAFB-CbFEtWuvY-95" value="precedes" style="edgeLabel;html=1;align=center;verticalAlign=middle;resizable=0;points=[];fontSize=12;" parent="0e71avUAFB-CbFEtWuvY-94" vertex="1" connectable="0">
          <mxGeometry x="0.0983" y="1" relative="1" as="geometry">
            <mxPoint as="offset" />
          </mxGeometry>
        </mxCell>
        <mxCell id="0e71avUAFB-CbFEtWuvY-96" style="edgeStyle=none;rounded=0;jumpStyle=arc;orthogonalLoop=1;jettySize=auto;html=1;dashed=1;dashPattern=1 4;startArrow=none;startFill=0;endArrow=classic;endFill=1;fontSize=12;fontColor=#000000;exitX=1;exitY=0.5;exitDx=0;exitDy=0;entryX=0;entryY=0.5;entryDx=0;entryDy=0;" parent="_vKOgibNYJb6RkX7hGH7-1" source="0e71avUAFB-CbFEtWuvY-48" target="0e71avUAFB-CbFEtWuvY-89" edge="1">
          <mxGeometry relative="1" as="geometry">
            <mxPoint x="713" y="2095" as="sourcePoint" />
            <mxPoint x="850" y="1975" as="targetPoint" />
          </mxGeometry>
        </mxCell>
        <mxCell id="0e71avUAFB-CbFEtWuvY-97" value="precedes" style="edgeLabel;html=1;align=center;verticalAlign=middle;resizable=0;points=[];fontSize=12;" parent="0e71avUAFB-CbFEtWuvY-96" vertex="1" connectable="0">
          <mxGeometry x="0.0983" y="1" relative="1" as="geometry">
            <mxPoint as="offset" />
          </mxGeometry>
        </mxCell>
        <mxCell id="0e71avUAFB-CbFEtWuvY-98" style="edgeStyle=none;rounded=0;jumpStyle=arc;orthogonalLoop=1;jettySize=auto;html=1;dashed=1;dashPattern=1 4;startArrow=none;startFill=0;endArrow=classic;endFill=1;fontSize=12;fontColor=#000000;exitX=1;exitY=0.5;exitDx=0;exitDy=0;entryX=0;entryY=0.5;entryDx=0;entryDy=0;" parent="_vKOgibNYJb6RkX7hGH7-1" source="0e71avUAFB-CbFEtWuvY-49" target="0e71avUAFB-CbFEtWuvY-89" edge="1">
          <mxGeometry relative="1" as="geometry">
            <mxPoint x="718" y="2155" as="sourcePoint" />
            <mxPoint x="850" y="1975" as="targetPoint" />
          </mxGeometry>
        </mxCell>
        <mxCell id="0e71avUAFB-CbFEtWuvY-99" value="precedes" style="edgeLabel;html=1;align=center;verticalAlign=middle;resizable=0;points=[];fontSize=12;" parent="0e71avUAFB-CbFEtWuvY-98" vertex="1" connectable="0">
          <mxGeometry x="0.0983" y="1" relative="1" as="geometry">
            <mxPoint as="offset" />
          </mxGeometry>
        </mxCell>
        <mxCell id="0e71avUAFB-CbFEtWuvY-100" value="Check Author Permissions" style="ellipse;whiteSpace=wrap;html=1;rounded=1;strokeWidth=1;fontSize=12;fillColor=#0066CC;strokeColor=#82b366;" parent="_vKOgibNYJb6RkX7hGH7-1" vertex="1">
          <mxGeometry x="850" y="2182" width="210" height="50" as="geometry" />
        </mxCell>
        <mxCell id="0e71avUAFB-CbFEtWuvY-101" style="edgeStyle=none;rounded=0;jumpStyle=arc;orthogonalLoop=1;jettySize=auto;html=1;dashed=1;dashPattern=1 4;startArrow=none;startFill=0;endArrow=classic;endFill=1;fontSize=12;fontColor=#000000;exitX=1;exitY=0.5;exitDx=0;exitDy=0;entryX=0;entryY=0.5;entryDx=0;entryDy=0;" parent="_vKOgibNYJb6RkX7hGH7-1" source="0e71avUAFB-CbFEtWuvY-49" target="0e71avUAFB-CbFEtWuvY-100" edge="1">
          <mxGeometry relative="1" as="geometry">
            <mxPoint x="713" y="2215" as="sourcePoint" />
            <mxPoint x="850" y="1975" as="targetPoint" />
          </mxGeometry>
        </mxCell>
        <mxCell id="0e71avUAFB-CbFEtWuvY-102" value="precedes" style="edgeLabel;html=1;align=center;verticalAlign=middle;resizable=0;points=[];fontSize=12;" parent="0e71avUAFB-CbFEtWuvY-101" vertex="1" connectable="0">
          <mxGeometry x="0.0983" y="1" relative="1" as="geometry">
            <mxPoint as="offset" />
          </mxGeometry>
        </mxCell>
        <mxCell id="0e71avUAFB-CbFEtWuvY-103" style="edgeStyle=none;rounded=0;jumpStyle=arc;orthogonalLoop=1;jettySize=auto;html=1;fontSize=12;fontColor=#000000;exitX=0;exitY=0.3333333333333333;exitDx=0;exitDy=0;exitPerimeter=0;entryX=1;entryY=1;entryDx=0;entryDy=0;" parent="_vKOgibNYJb6RkX7hGH7-1" source="0e71avUAFB-CbFEtWuvY-44" target="0e71avUAFB-CbFEtWuvY-49" edge="1">
          <mxGeometry relative="1" as="geometry">
            <mxPoint x="1190" y="2342" as="sourcePoint" />
            <mxPoint x="682" y="2233" as="targetPoint" />
            <Array as="points">
              <mxPoint x="1110" y="2290" />
            </Array>
          </mxGeometry>
        </mxCell>
        <mxCell id="0e71avUAFB-CbFEtWuvY-104" style="edgeStyle=none;rounded=0;jumpStyle=arc;orthogonalLoop=1;jettySize=auto;html=1;fontSize=12;fontColor=#000000;entryX=0;entryY=0.5;entryDx=0;entryDy=0;exitX=1;exitY=0.3333333333333333;exitDx=0;exitDy=0;exitPerimeter=0;" parent="_vKOgibNYJb6RkX7hGH7-1" source="0e71avUAFB-CbFEtWuvY-77" target="0e71avUAFB-CbFEtWuvY-50" edge="1">
          <mxGeometry relative="1" as="geometry">
            <mxPoint x="230" y="2230" as="sourcePoint" />
            <mxPoint x="508" y="2155" as="targetPoint" />
          </mxGeometry>
        </mxCell>
        <mxCell id="0e71avUAFB-CbFEtWuvY-105" style="edgeStyle=none;rounded=0;jumpStyle=arc;orthogonalLoop=1;jettySize=auto;html=1;fontSize=12;fontColor=#000000;entryX=0;entryY=0.5;entryDx=0;entryDy=0;exitX=1;exitY=0.3333333333333333;exitDx=0;exitDy=0;exitPerimeter=0;" parent="_vKOgibNYJb6RkX7hGH7-1" source="0e71avUAFB-CbFEtWuvY-77" target="0e71avUAFB-CbFEtWuvY-51" edge="1">
          <mxGeometry relative="1" as="geometry">
            <mxPoint x="232" y="2229" as="sourcePoint" />
            <mxPoint x="503" y="2275" as="targetPoint" />
          </mxGeometry>
        </mxCell>
        <mxCell id="0e71avUAFB-CbFEtWuvY-106" style="edgeStyle=none;rounded=0;jumpStyle=arc;orthogonalLoop=1;jettySize=auto;html=1;fontSize=12;fontColor=#000000;entryX=0;entryY=0.5;entryDx=0;entryDy=0;exitX=1;exitY=0.3333333333333333;exitDx=0;exitDy=0;exitPerimeter=0;" parent="_vKOgibNYJb6RkX7hGH7-1" source="0e71avUAFB-CbFEtWuvY-77" target="0e71avUAFB-CbFEtWuvY-52" edge="1">
          <mxGeometry relative="1" as="geometry">
            <mxPoint x="232" y="2229" as="sourcePoint" />
            <mxPoint x="503" y="2335" as="targetPoint" />
          </mxGeometry>
        </mxCell>
        <mxCell id="0e71avUAFB-CbFEtWuvY-107" value="View Authors Profiles" style="ellipse;whiteSpace=wrap;html=1;rounded=1;strokeWidth=1;fontSize=12;fillColor=#00FF00;strokeColor=#82b366;" parent="_vKOgibNYJb6RkX7hGH7-1" vertex="1">
          <mxGeometry x="490" y="2660" width="210" height="50" as="geometry" />
        </mxCell>
        <mxCell id="0e71avUAFB-CbFEtWuvY-109" value="Do Premium Subscription" style="ellipse;whiteSpace=wrap;html=1;rounded=1;strokeWidth=1;fontSize=12;fillColor=#00FF00;strokeColor=#82b366;" parent="_vKOgibNYJb6RkX7hGH7-1" vertex="1">
          <mxGeometry x="490" y="2720" width="210" height="50" as="geometry" />
        </mxCell>
        <mxCell id="0e71avUAFB-CbFEtWuvY-110" value="Liset and Filter Ads" style="ellipse;whiteSpace=wrap;html=1;rounded=1;strokeWidth=1;fontSize=12;fillColor=#00FF00;strokeColor=#82b366;" parent="_vKOgibNYJb6RkX7hGH7-1" vertex="1">
          <mxGeometry x="635" y="1550" width="210" height="50" as="geometry" />
        </mxCell>
        <mxCell id="0e71avUAFB-CbFEtWuvY-111" value="GRUD on Ads" style="ellipse;whiteSpace=wrap;html=1;rounded=1;strokeWidth=1;fontSize=12;fillColor=#00FF00;strokeColor=#82b366;" parent="_vKOgibNYJb6RkX7hGH7-1" vertex="1">
          <mxGeometry x="635" y="1610" width="210" height="50" as="geometry" />
        </mxCell>
        <mxCell id="0e71avUAFB-CbFEtWuvY-112" style="edgeStyle=none;rounded=0;jumpStyle=arc;orthogonalLoop=1;jettySize=auto;html=1;fontSize=12;fontColor=#000000;entryX=1;entryY=0.5;entryDx=0;entryDy=0;exitX=0;exitY=0.3333333333333333;exitDx=0;exitDy=0;exitPerimeter=0;" parent="_vKOgibNYJb6RkX7hGH7-1" source="0e71avUAFB-CbFEtWuvY-5" target="0e71avUAFB-CbFEtWuvY-110" edge="1">
          <mxGeometry relative="1" as="geometry">
            <mxPoint x="1010" y="1179" as="sourcePoint" />
            <mxPoint x="855" y="1524" as="targetPoint" />
          </mxGeometry>
        </mxCell>
        <mxCell id="0e71avUAFB-CbFEtWuvY-113" style="edgeStyle=none;rounded=0;jumpStyle=arc;orthogonalLoop=1;jettySize=auto;html=1;fontSize=12;fontColor=#000000;entryX=1;entryY=0.5;entryDx=0;entryDy=0;exitX=0;exitY=0.3333333333333333;exitDx=0;exitDy=0;exitPerimeter=0;" parent="_vKOgibNYJb6RkX7hGH7-1" source="0e71avUAFB-CbFEtWuvY-5" target="0e71avUAFB-CbFEtWuvY-111" edge="1">
          <mxGeometry relative="1" as="geometry">
            <mxPoint x="1010" y="1179" as="sourcePoint" />
            <mxPoint x="855" y="1585" as="targetPoint" />
          </mxGeometry>
        </mxCell>
        <mxCell id="iT8uw37pF2lnl41VGRrj-0" style="edgeStyle=none;rounded=0;jumpStyle=arc;orthogonalLoop=1;jettySize=auto;html=1;fontSize=12;fontColor=#000000;entryX=0;entryY=0.5;entryDx=0;entryDy=0;exitX=1;exitY=0.3333333333333333;exitDx=0;exitDy=0;exitPerimeter=0;" parent="_vKOgibNYJb6RkX7hGH7-1" source="0e71avUAFB-CbFEtWuvY-77" target="0e71avUAFB-CbFEtWuvY-53" edge="1">
          <mxGeometry relative="1" as="geometry">
            <mxPoint x="232" y="2229" as="sourcePoint" />
            <mxPoint x="503" y="2395" as="targetPoint" />
          </mxGeometry>
        </mxCell>
        <mxCell id="iT8uw37pF2lnl41VGRrj-1" style="edgeStyle=none;rounded=0;jumpStyle=arc;orthogonalLoop=1;jettySize=auto;html=1;fontSize=12;fontColor=#000000;entryX=0;entryY=0.5;entryDx=0;entryDy=0;exitX=1;exitY=0.3333333333333333;exitDx=0;exitDy=0;exitPerimeter=0;" parent="_vKOgibNYJb6RkX7hGH7-1" source="0e71avUAFB-CbFEtWuvY-77" target="0e71avUAFB-CbFEtWuvY-54" edge="1">
          <mxGeometry relative="1" as="geometry">
            <mxPoint x="232" y="2229" as="sourcePoint" />
            <mxPoint x="503" y="2455" as="targetPoint" />
          </mxGeometry>
        </mxCell>
        <mxCell id="iT8uw37pF2lnl41VGRrj-2" style="edgeStyle=none;rounded=0;jumpStyle=arc;orthogonalLoop=1;jettySize=auto;html=1;fontSize=12;fontColor=#000000;entryX=0;entryY=0.5;entryDx=0;entryDy=0;exitX=1;exitY=0.3333333333333333;exitDx=0;exitDy=0;exitPerimeter=0;" parent="_vKOgibNYJb6RkX7hGH7-1" source="0e71avUAFB-CbFEtWuvY-77" target="0e71avUAFB-CbFEtWuvY-55" edge="1">
          <mxGeometry relative="1" as="geometry">
            <mxPoint x="232" y="2229" as="sourcePoint" />
            <mxPoint x="503" y="2515" as="targetPoint" />
          </mxGeometry>
        </mxCell>
        <mxCell id="iT8uw37pF2lnl41VGRrj-3" style="edgeStyle=none;rounded=0;jumpStyle=arc;orthogonalLoop=1;jettySize=auto;html=1;fontSize=12;fontColor=#000000;entryX=0;entryY=0.5;entryDx=0;entryDy=0;exitX=1;exitY=0.3333333333333333;exitDx=0;exitDy=0;exitPerimeter=0;" parent="_vKOgibNYJb6RkX7hGH7-1" source="0e71avUAFB-CbFEtWuvY-77" target="0e71avUAFB-CbFEtWuvY-56" edge="1">
          <mxGeometry relative="1" as="geometry">
            <mxPoint x="232" y="2229" as="sourcePoint" />
            <mxPoint x="503" y="2575" as="targetPoint" />
          </mxGeometry>
        </mxCell>
        <mxCell id="iT8uw37pF2lnl41VGRrj-4" style="edgeStyle=none;rounded=0;jumpStyle=arc;orthogonalLoop=1;jettySize=auto;html=1;fontSize=12;fontColor=#000000;entryX=0;entryY=0.5;entryDx=0;entryDy=0;exitX=1;exitY=0.3333333333333333;exitDx=0;exitDy=0;exitPerimeter=0;" parent="_vKOgibNYJb6RkX7hGH7-1" source="0e71avUAFB-CbFEtWuvY-77" target="0e71avUAFB-CbFEtWuvY-107" edge="1">
          <mxGeometry relative="1" as="geometry">
            <mxPoint x="232" y="2229" as="sourcePoint" />
            <mxPoint x="503" y="2635" as="targetPoint" />
          </mxGeometry>
        </mxCell>
        <mxCell id="iT8uw37pF2lnl41VGRrj-5" style="edgeStyle=none;rounded=0;jumpStyle=arc;orthogonalLoop=1;jettySize=auto;html=1;fontSize=12;fontColor=#000000;entryX=0;entryY=0.5;entryDx=0;entryDy=0;exitX=1;exitY=0.3333333333333333;exitDx=0;exitDy=0;exitPerimeter=0;" parent="_vKOgibNYJb6RkX7hGH7-1" source="0e71avUAFB-CbFEtWuvY-77" target="0e71avUAFB-CbFEtWuvY-109" edge="1">
          <mxGeometry relative="1" as="geometry">
            <mxPoint x="232" y="2229" as="sourcePoint" />
            <mxPoint x="500" y="2695" as="targetPoint" />
          </mxGeometry>
        </mxCell>
        <mxCell id="iT8uw37pF2lnl41VGRrj-6" value="Manage Premium Subscription" style="ellipse;whiteSpace=wrap;html=1;rounded=1;strokeWidth=1;fontSize=12;fillColor=#00FF00;strokeColor=#82b366;" parent="_vKOgibNYJb6RkX7hGH7-1" vertex="1">
          <mxGeometry x="635" y="1670" width="210" height="50" as="geometry" />
        </mxCell>
        <mxCell id="N2ZiUpuptdByODm7h66X-3" value="" style="rounded=1;whiteSpace=wrap;html=1;" parent="_vKOgibNYJb6RkX7hGH7-1" vertex="1">
          <mxGeometry x="80" y="40" width="1360" height="600" as="geometry" />
        </mxCell>
        <mxCell id="7ZOL0Kw116GFm8CpVeHd-97" style="edgeStyle=orthogonalEdgeStyle;rounded=0;orthogonalLoop=1;jettySize=auto;html=1;entryX=0.5;entryY=0;entryDx=0;entryDy=0;entryPerimeter=0;shadow=0;" parent="_vKOgibNYJb6RkX7hGH7-1" target="vymDnyKPPEYszy0MNH52-3" edge="1">
          <mxGeometry relative="1" as="geometry">
            <mxPoint x="164" y="449.9999999999999" as="targetPoint" />
            <Array as="points">
              <mxPoint x="211" y="440" />
              <mxPoint x="140" y="440" />
            </Array>
            <mxPoint x="211.04761904761904" y="420" as="sourcePoint" />
          </mxGeometry>
        </mxCell>
        <mxCell id="7ZOL0Kw116GFm8CpVeHd-98" style="edgeStyle=orthogonalEdgeStyle;rounded=0;orthogonalLoop=1;jettySize=auto;html=1;entryX=0.5;entryY=0;entryDx=0;entryDy=0;entryPerimeter=0;shadow=0;" parent="_vKOgibNYJb6RkX7hGH7-1" source="_vKOgibNYJb6RkX7hGH7-7" target="vymDnyKPPEYszy0MNH52-4" edge="1">
          <mxGeometry relative="1" as="geometry">
            <mxPoint x="255" y="449.9999999999999" as="targetPoint" />
            <Array as="points">
              <mxPoint x="212" y="440" />
              <mxPoint x="283" y="440" />
            </Array>
          </mxGeometry>
        </mxCell>
        <mxCell id="0e71avUAFB-CbFEtWuvY-40" style="edgeStyle=orthogonalEdgeStyle;rounded=0;orthogonalLoop=1;jettySize=auto;html=1;entryX=0.5;entryY=0;entryDx=0;entryDy=0;entryPerimeter=0;shadow=0;" parent="_vKOgibNYJb6RkX7hGH7-1" source="_vKOgibNYJb6RkX7hGH7-7" target="0e71avUAFB-CbFEtWuvY-41" edge="1">
          <mxGeometry relative="1" as="geometry">
            <mxPoint x="212" y="450" as="targetPoint" />
          </mxGeometry>
        </mxCell>
        <mxCell id="_vKOgibNYJb6RkX7hGH7-7" value="User" style="shape=umlActor;verticalLabelPosition=bottom;verticalAlign=top;html=1;fontFamily=Helvetica;fontSize=12;align=center;strokeColor=#82b366;strokeWidth=1;fillColor=#00FF00;shadow=0;" parent="_vKOgibNYJb6RkX7hGH7-1" vertex="1">
          <mxGeometry x="197" y="360" width="30" height="60" as="geometry" />
        </mxCell>
        <mxCell id="_vKOgibNYJb6RkX7hGH7-103" style="edgeStyle=none;rounded=0;jumpStyle=arc;orthogonalLoop=1;jettySize=auto;html=1;fontSize=12;fontColor=#000000;dashed=1;dashPattern=1 4;shadow=0;" parent="_vKOgibNYJb6RkX7hGH7-1" source="_vKOgibNYJb6RkX7hGH7-8" target="_vKOgibNYJb6RkX7hGH7-100" edge="1">
          <mxGeometry relative="1" as="geometry">
            <Array as="points">
              <mxPoint x="675" y="280" />
              <mxPoint x="855" y="250" />
              <mxPoint x="1015" y="96" />
            </Array>
          </mxGeometry>
        </mxCell>
        <mxCell id="_vKOgibNYJb6RkX7hGH7-104" value="precedes" style="edgeLabel;html=1;align=center;verticalAlign=middle;resizable=0;points=[];fontSize=12;" parent="_vKOgibNYJb6RkX7hGH7-103" vertex="1" connectable="0">
          <mxGeometry x="0.143" relative="1" as="geometry">
            <mxPoint x="-277.43" y="64.57" as="offset" />
          </mxGeometry>
        </mxCell>
        <mxCell id="_vKOgibNYJb6RkX7hGH7-8" value="Update account details" style="ellipse;whiteSpace=wrap;html=1;rounded=1;strokeWidth=1;fontSize=12;fillColor=#00FF00;strokeColor=#82b366;shadow=0;" parent="_vKOgibNYJb6RkX7hGH7-1" vertex="1">
          <mxGeometry x="405" y="340" width="120" height="50" as="geometry" />
        </mxCell>
        <mxCell id="_vKOgibNYJb6RkX7hGH7-80" style="rounded=0;jumpStyle=arc;orthogonalLoop=1;jettySize=auto;html=1;fontSize=12;fontColor=#000000;dashed=1;dashPattern=1 4;shadow=0;" parent="_vKOgibNYJb6RkX7hGH7-1" source="_vKOgibNYJb6RkX7hGH7-14" target="_vKOgibNYJb6RkX7hGH7-8" edge="1">
          <mxGeometry relative="1" as="geometry" />
        </mxCell>
        <mxCell id="_vKOgibNYJb6RkX7hGH7-81" value="extends" style="edgeLabel;html=1;align=center;verticalAlign=middle;resizable=0;points=[];" parent="_vKOgibNYJb6RkX7hGH7-80" vertex="1" connectable="0">
          <mxGeometry x="-0.4243" relative="1" as="geometry">
            <mxPoint y="-1" as="offset" />
          </mxGeometry>
        </mxCell>
        <mxCell id="_vKOgibNYJb6RkX7hGH7-14" value="Add payment method" style="ellipse;whiteSpace=wrap;html=1;rounded=1;strokeWidth=1;fontSize=12;fillColor=#00FF00;strokeColor=#82b366;shadow=0;" parent="_vKOgibNYJb6RkX7hGH7-1" vertex="1">
          <mxGeometry x="585" y="415" width="120" height="50" as="geometry" />
        </mxCell>
        <mxCell id="_vKOgibNYJb6RkX7hGH7-56" style="edgeStyle=none;rounded=0;orthogonalLoop=1;jettySize=auto;html=1;fontSize=12;fontColor=#000000;dashed=1;dashPattern=1 4;startArrow=classic;startFill=1;endArrow=none;endFill=0;shadow=0;" parent="_vKOgibNYJb6RkX7hGH7-1" source="_vKOgibNYJb6RkX7hGH7-17" target="_vKOgibNYJb6RkX7hGH7-14" edge="1">
          <mxGeometry relative="1" as="geometry" />
        </mxCell>
        <mxCell id="_vKOgibNYJb6RkX7hGH7-57" value="precedes" style="edgeLabel;html=1;align=center;verticalAlign=middle;resizable=0;points=[];" parent="_vKOgibNYJb6RkX7hGH7-56" vertex="1" connectable="0">
          <mxGeometry x="-0.135" y="-2" relative="1" as="geometry">
            <mxPoint as="offset" />
          </mxGeometry>
        </mxCell>
        <mxCell id="_vKOgibNYJb6RkX7hGH7-107" style="edgeStyle=none;rounded=0;jumpStyle=arc;orthogonalLoop=1;jettySize=auto;html=1;dashed=1;dashPattern=1 4;fontSize=12;fontColor=#000000;shadow=0;" parent="_vKOgibNYJb6RkX7hGH7-1" source="_vKOgibNYJb6RkX7hGH7-17" target="_vKOgibNYJb6RkX7hGH7-18" edge="1">
          <mxGeometry relative="1" as="geometry" />
        </mxCell>
        <mxCell id="_vKOgibNYJb6RkX7hGH7-108" value="precedes" style="edgeLabel;html=1;align=center;verticalAlign=middle;resizable=0;points=[];fontSize=12;" parent="_vKOgibNYJb6RkX7hGH7-107" vertex="1" connectable="0">
          <mxGeometry x="-0.6637" y="-1" relative="1" as="geometry">
            <mxPoint as="offset" />
          </mxGeometry>
        </mxCell>
        <mxCell id="_vKOgibNYJb6RkX7hGH7-17" value="Enter payment details" style="ellipse;whiteSpace=wrap;html=1;rounded=1;strokeWidth=1;fontSize=12;fillColor=#00FF00;strokeColor=#82b366;shadow=0;" parent="_vKOgibNYJb6RkX7hGH7-1" vertex="1">
          <mxGeometry x="715" y="482" width="120" height="50" as="geometry" />
        </mxCell>
        <mxCell id="_vKOgibNYJb6RkX7hGH7-18" value="Verify credit card details" style="ellipse;whiteSpace=wrap;html=1;rounded=1;strokeWidth=1;fontSize=12;fillColor=#0066CC;strokeColor=#6c8ebf;shadow=0;" parent="_vKOgibNYJb6RkX7hGH7-1" vertex="1">
          <mxGeometry x="1015" y="465" width="120" height="50" as="geometry" />
        </mxCell>
        <mxCell id="_vKOgibNYJb6RkX7hGH7-69" style="edgeStyle=none;rounded=0;jumpStyle=arc;orthogonalLoop=1;jettySize=auto;html=1;dashed=1;dashPattern=1 4;fontSize=12;fontColor=#000000;shadow=0;" parent="_vKOgibNYJb6RkX7hGH7-1" source="_vKOgibNYJb6RkX7hGH7-25" target="_vKOgibNYJb6RkX7hGH7-8" edge="1">
          <mxGeometry relative="1" as="geometry" />
        </mxCell>
        <mxCell id="_vKOgibNYJb6RkX7hGH7-70" value="extends" style="edgeLabel;html=1;align=center;verticalAlign=middle;resizable=0;points=[];" parent="_vKOgibNYJb6RkX7hGH7-69" vertex="1" connectable="0">
          <mxGeometry x="-0.3113" relative="1" as="geometry">
            <mxPoint x="1" as="offset" />
          </mxGeometry>
        </mxCell>
        <mxCell id="_vKOgibNYJb6RkX7hGH7-98" style="edgeStyle=none;rounded=0;jumpStyle=arc;orthogonalLoop=1;jettySize=auto;html=1;dashed=1;dashPattern=1 4;fontSize=12;fontColor=#000000;shadow=0;" parent="_vKOgibNYJb6RkX7hGH7-1" source="_vKOgibNYJb6RkX7hGH7-25" target="_vKOgibNYJb6RkX7hGH7-27" edge="1">
          <mxGeometry relative="1" as="geometry" />
        </mxCell>
        <mxCell id="_vKOgibNYJb6RkX7hGH7-99" value="precedes" style="edgeLabel;html=1;align=center;verticalAlign=middle;resizable=0;points=[];fontSize=12;" parent="_vKOgibNYJb6RkX7hGH7-98" vertex="1" connectable="0">
          <mxGeometry x="-0.7135" y="-2" relative="1" as="geometry">
            <mxPoint as="offset" />
          </mxGeometry>
        </mxCell>
        <mxCell id="_vKOgibNYJb6RkX7hGH7-25" value="Change email address (username)" style="ellipse;whiteSpace=wrap;html=1;rounded=1;strokeWidth=1;fontSize=12;fillColor=#00FF00;strokeColor=#82b366;shadow=0;" parent="_vKOgibNYJb6RkX7hGH7-1" vertex="1">
          <mxGeometry x="605" y="200" width="120" height="50" as="geometry" />
        </mxCell>
        <mxCell id="_vKOgibNYJb6RkX7hGH7-111" style="edgeStyle=none;rounded=0;jumpStyle=arc;orthogonalLoop=1;jettySize=auto;html=1;dashed=1;dashPattern=1 4;startArrow=none;startFill=0;endArrow=classic;endFill=1;fontSize=12;fontColor=#000000;shadow=0;" parent="_vKOgibNYJb6RkX7hGH7-1" source="_vKOgibNYJb6RkX7hGH7-27" target="_vKOgibNYJb6RkX7hGH7-29" edge="1">
          <mxGeometry relative="1" as="geometry" />
        </mxCell>
        <mxCell id="_vKOgibNYJb6RkX7hGH7-112" value="precedes" style="edgeLabel;html=1;align=center;verticalAlign=middle;resizable=0;points=[];fontSize=12;" parent="_vKOgibNYJb6RkX7hGH7-111" vertex="1" connectable="0">
          <mxGeometry x="-0.0258" y="3" relative="1" as="geometry">
            <mxPoint as="offset" />
          </mxGeometry>
        </mxCell>
        <mxCell id="_vKOgibNYJb6RkX7hGH7-27" value="Verify email is unique" style="ellipse;whiteSpace=wrap;html=1;rounded=1;strokeWidth=1;fontSize=12;fillColor=#0066CC;strokeColor=#6c8ebf;shadow=0;" parent="_vKOgibNYJb6RkX7hGH7-1" vertex="1">
          <mxGeometry x="1005" y="210" width="120" height="50" as="geometry" />
        </mxCell>
        <mxCell id="_vKOgibNYJb6RkX7hGH7-29" value="Send confirmation link via email" style="ellipse;whiteSpace=wrap;html=1;rounded=1;strokeWidth=1;fontSize=12;fillColor=#0066CC;strokeColor=#6c8ebf;shadow=0;" parent="_vKOgibNYJb6RkX7hGH7-1" vertex="1">
          <mxGeometry x="1015" y="130" width="120" height="50" as="geometry" />
        </mxCell>
        <mxCell id="_vKOgibNYJb6RkX7hGH7-35" value="User database" style="shape=cylinder3;whiteSpace=wrap;html=1;boundedLbl=1;backgroundOutline=1;size=15;rounded=1;strokeWidth=1;fillColor=#0066CC;strokeColor=#6c8ebf;shadow=0;" parent="_vKOgibNYJb6RkX7hGH7-1" vertex="1">
          <mxGeometry x="1270" y="225" width="60" height="80" as="geometry" />
        </mxCell>
        <mxCell id="_vKOgibNYJb6RkX7hGH7-36" style="edgeStyle=none;rounded=0;orthogonalLoop=1;jettySize=auto;html=1;exitX=0;exitY=1;exitDx=0;exitDy=-15;exitPerimeter=0;dashed=1;dashPattern=1 4;fontSize=12;fontColor=#000000;shadow=0;" parent="_vKOgibNYJb6RkX7hGH7-1" source="_vKOgibNYJb6RkX7hGH7-35" target="_vKOgibNYJb6RkX7hGH7-35" edge="1">
          <mxGeometry relative="1" as="geometry" />
        </mxCell>
        <mxCell id="_vKOgibNYJb6RkX7hGH7-37" value="System" style="shape=umlActor;verticalLabelPosition=bottom;verticalAlign=top;html=1;outlineConnect=0;rounded=1;strokeWidth=1;fillColor=#0066CC;strokeColor=#6c8ebf;shadow=0;" parent="_vKOgibNYJb6RkX7hGH7-1" vertex="1">
          <mxGeometry x="1220" y="335" width="30" height="60" as="geometry" />
        </mxCell>
        <mxCell id="_vKOgibNYJb6RkX7hGH7-42" style="edgeStyle=none;rounded=0;orthogonalLoop=1;jettySize=auto;html=1;dashed=1;dashPattern=1 4;fontSize=12;fontColor=#000000;shadow=0;" parent="_vKOgibNYJb6RkX7hGH7-1" source="_vKOgibNYJb6RkX7hGH7-40" target="_vKOgibNYJb6RkX7hGH7-8" edge="1">
          <mxGeometry relative="1" as="geometry" />
        </mxCell>
        <mxCell id="_vKOgibNYJb6RkX7hGH7-43" value="includes" style="edgeLabel;html=1;align=center;verticalAlign=middle;resizable=0;points=[];" parent="_vKOgibNYJb6RkX7hGH7-42" vertex="1" connectable="0">
          <mxGeometry x="-0.2399" y="1" relative="1" as="geometry">
            <mxPoint x="-1" y="-9" as="offset" />
          </mxGeometry>
        </mxCell>
        <mxCell id="_vKOgibNYJb6RkX7hGH7-94" style="edgeStyle=none;rounded=0;jumpStyle=arc;orthogonalLoop=1;jettySize=auto;html=1;dashed=1;dashPattern=1 4;fontSize=12;fontColor=#000000;shadow=0;" parent="_vKOgibNYJb6RkX7hGH7-1" source="_vKOgibNYJb6RkX7hGH7-40" target="_vKOgibNYJb6RkX7hGH7-25" edge="1">
          <mxGeometry relative="1" as="geometry" />
        </mxCell>
        <mxCell id="_vKOgibNYJb6RkX7hGH7-95" value="includes" style="edgeLabel;html=1;align=center;verticalAlign=middle;resizable=0;points=[];fontSize=12;" parent="_vKOgibNYJb6RkX7hGH7-94" vertex="1" connectable="0">
          <mxGeometry x="-0.4653" y="2" relative="1" as="geometry">
            <mxPoint x="15.21" as="offset" />
          </mxGeometry>
        </mxCell>
        <mxCell id="_vKOgibNYJb6RkX7hGH7-40" value="Register" style="ellipse;whiteSpace=wrap;html=1;rounded=1;strokeWidth=1;fontSize=12;fillColor=#00FF00;strokeColor=#82b366;shadow=0;" parent="_vKOgibNYJb6RkX7hGH7-1" vertex="1">
          <mxGeometry x="405" y="240" width="120" height="50" as="geometry" />
        </mxCell>
        <mxCell id="_vKOgibNYJb6RkX7hGH7-96" style="edgeStyle=none;rounded=0;jumpStyle=arc;orthogonalLoop=1;jettySize=auto;html=1;dashed=1;dashPattern=1 4;fontSize=12;fontColor=#000000;shadow=0;" parent="_vKOgibNYJb6RkX7hGH7-1" source="_vKOgibNYJb6RkX7hGH7-41" target="_vKOgibNYJb6RkX7hGH7-86" edge="1">
          <mxGeometry relative="1" as="geometry">
            <Array as="points">
              <mxPoint x="595" y="610" />
              <mxPoint x="975" y="610" />
              <mxPoint x="1035" y="370" />
              <mxPoint x="1045" y="350" />
            </Array>
          </mxGeometry>
        </mxCell>
        <mxCell id="_vKOgibNYJb6RkX7hGH7-97" value="precedes" style="edgeLabel;html=1;align=center;verticalAlign=middle;resizable=0;points=[];fontSize=12;" parent="_vKOgibNYJb6RkX7hGH7-96" vertex="1" connectable="0">
          <mxGeometry x="-0.8699" y="3" relative="1" as="geometry">
            <mxPoint as="offset" />
          </mxGeometry>
        </mxCell>
        <mxCell id="_vKOgibNYJb6RkX7hGH7-113" style="edgeStyle=none;rounded=0;jumpStyle=arc;orthogonalLoop=1;jettySize=auto;html=1;dashed=1;dashPattern=1 4;startArrow=none;startFill=0;endArrow=classic;endFill=1;fontSize=12;fontColor=#000000;shadow=0;" parent="_vKOgibNYJb6RkX7hGH7-1" source="_vKOgibNYJb6RkX7hGH7-41" target="_vKOgibNYJb6RkX7hGH7-44" edge="1">
          <mxGeometry relative="1" as="geometry" />
        </mxCell>
        <mxCell id="_vKOgibNYJb6RkX7hGH7-114" value="precedes" style="edgeLabel;html=1;align=center;verticalAlign=middle;resizable=0;points=[];fontSize=12;" parent="_vKOgibNYJb6RkX7hGH7-113" vertex="1" connectable="0">
          <mxGeometry x="0.0983" y="1" relative="1" as="geometry">
            <mxPoint as="offset" />
          </mxGeometry>
        </mxCell>
        <mxCell id="_vKOgibNYJb6RkX7hGH7-115" style="edgeStyle=none;rounded=0;jumpStyle=arc;orthogonalLoop=1;jettySize=auto;html=1;dashed=1;dashPattern=1 4;startArrow=none;startFill=0;endArrow=classic;endFill=1;fontSize=12;fontColor=#000000;shadow=0;" parent="_vKOgibNYJb6RkX7hGH7-1" source="_vKOgibNYJb6RkX7hGH7-41" target="_vKOgibNYJb6RkX7hGH7-8" edge="1">
          <mxGeometry relative="1" as="geometry">
            <Array as="points">
              <mxPoint x="565" y="516" />
              <mxPoint x="555" y="450" />
              <mxPoint x="475" y="400" />
            </Array>
          </mxGeometry>
        </mxCell>
        <mxCell id="_vKOgibNYJb6RkX7hGH7-116" value="precedes" style="edgeLabel;html=1;align=center;verticalAlign=middle;resizable=0;points=[];fontSize=12;" parent="_vKOgibNYJb6RkX7hGH7-115" vertex="1" connectable="0">
          <mxGeometry x="-0.6434" y="-1" relative="1" as="geometry">
            <mxPoint as="offset" />
          </mxGeometry>
        </mxCell>
        <mxCell id="_vKOgibNYJb6RkX7hGH7-41" value="Login" style="ellipse;whiteSpace=wrap;html=1;rounded=1;strokeWidth=1;fontSize=12;fillColor=#00FF00;strokeColor=#82b366;shadow=0;" parent="_vKOgibNYJb6RkX7hGH7-1" vertex="1">
          <mxGeometry x="425" y="515" width="120" height="50" as="geometry" />
        </mxCell>
        <mxCell id="_vKOgibNYJb6RkX7hGH7-44" value="View account" style="ellipse;whiteSpace=wrap;html=1;rounded=1;strokeWidth=1;fontSize=12;fillColor=#00FF00;strokeColor=#82b366;shadow=0;" parent="_vKOgibNYJb6RkX7hGH7-1" vertex="1">
          <mxGeometry x="415" y="425" width="120" height="50" as="geometry" />
        </mxCell>
        <mxCell id="_vKOgibNYJb6RkX7hGH7-92" style="edgeStyle=none;rounded=0;jumpStyle=arc;orthogonalLoop=1;jettySize=auto;html=1;dashed=1;dashPattern=1 4;fontSize=12;fontColor=#000000;startArrow=classic;startFill=1;endArrow=none;endFill=0;shadow=0;" parent="_vKOgibNYJb6RkX7hGH7-1" source="_vKOgibNYJb6RkX7hGH7-49" target="_vKOgibNYJb6RkX7hGH7-29" edge="1">
          <mxGeometry relative="1" as="geometry" />
        </mxCell>
        <mxCell id="_vKOgibNYJb6RkX7hGH7-93" value="precedes" style="edgeLabel;html=1;align=center;verticalAlign=middle;resizable=0;points=[];fontSize=12;" parent="_vKOgibNYJb6RkX7hGH7-92" vertex="1" connectable="0">
          <mxGeometry x="-0.7776" relative="1" as="geometry">
            <mxPoint as="offset" />
          </mxGeometry>
        </mxCell>
        <mxCell id="_vKOgibNYJb6RkX7hGH7-49" value="Confirm email address" style="ellipse;whiteSpace=wrap;html=1;rounded=1;strokeWidth=1;fontSize=12;fillColor=#00FF00;strokeColor=#36393d;shadow=0;" parent="_vKOgibNYJb6RkX7hGH7-1" vertex="1">
          <mxGeometry x="445" y="140" width="120" height="50" as="geometry" />
        </mxCell>
        <mxCell id="_vKOgibNYJb6RkX7hGH7-50" value="Third-party payment &lt;br&gt;verification service" style="shape=umlActor;verticalLabelPosition=bottom;verticalAlign=top;html=1;outlineConnect=0;rounded=1;strokeWidth=1;fillColor=#f8cecc;strokeColor=#b85450;shadow=0;" parent="_vKOgibNYJb6RkX7hGH7-1" vertex="1">
          <mxGeometry x="1220" y="460" width="30" height="60" as="geometry" />
        </mxCell>
        <mxCell id="_vKOgibNYJb6RkX7hGH7-88" style="edgeStyle=none;rounded=0;jumpStyle=arc;orthogonalLoop=1;jettySize=auto;html=1;fontSize=12;fontColor=#000000;dashed=1;dashPattern=1 4;shadow=0;" parent="_vKOgibNYJb6RkX7hGH7-1" source="_vKOgibNYJb6RkX7hGH7-27" target="_vKOgibNYJb6RkX7hGH7-86" edge="1">
          <mxGeometry relative="1" as="geometry" />
        </mxCell>
        <mxCell id="_vKOgibNYJb6RkX7hGH7-89" value="includes" style="edgeLabel;html=1;align=center;verticalAlign=middle;resizable=0;points=[];" parent="_vKOgibNYJb6RkX7hGH7-88" vertex="1" connectable="0">
          <mxGeometry x="-0.1916" y="1" relative="1" as="geometry">
            <mxPoint x="-1" as="offset" />
          </mxGeometry>
        </mxCell>
        <mxCell id="_vKOgibNYJb6RkX7hGH7-86" value="Check for existing account" style="ellipse;whiteSpace=wrap;html=1;rounded=1;strokeWidth=1;fontSize=12;fillColor=#0066CC;strokeColor=#6c8ebf;shadow=0;" parent="_vKOgibNYJb6RkX7hGH7-1" vertex="1">
          <mxGeometry x="1005" y="290" width="120" height="50" as="geometry" />
        </mxCell>
        <mxCell id="_vKOgibNYJb6RkX7hGH7-100" value="Update User database" style="ellipse;whiteSpace=wrap;html=1;rounded=1;strokeWidth=1;fontSize=12;fillColor=#0066CC;strokeColor=#6c8ebf;shadow=0;" parent="_vKOgibNYJb6RkX7hGH7-1" vertex="1">
          <mxGeometry x="1075" y="70" width="120" height="50" as="geometry" />
        </mxCell>
        <mxCell id="_vKOgibNYJb6RkX7hGH7-24" style="edgeStyle=none;rounded=0;orthogonalLoop=1;jettySize=auto;html=1;fontSize=12;fontColor=#000000;shadow=0;" parent="_vKOgibNYJb6RkX7hGH7-1" source="_vKOgibNYJb6RkX7hGH7-7" target="_vKOgibNYJb6RkX7hGH7-8" edge="1">
          <mxGeometry relative="1" as="geometry" />
        </mxCell>
        <mxCell id="_vKOgibNYJb6RkX7hGH7-45" style="edgeStyle=none;rounded=0;orthogonalLoop=1;jettySize=auto;html=1;fontSize=12;fontColor=#000000;shadow=0;" parent="_vKOgibNYJb6RkX7hGH7-1" source="_vKOgibNYJb6RkX7hGH7-7" target="_vKOgibNYJb6RkX7hGH7-44" edge="1">
          <mxGeometry relative="1" as="geometry" />
        </mxCell>
        <mxCell id="_vKOgibNYJb6RkX7hGH7-46" style="edgeStyle=none;rounded=0;orthogonalLoop=1;jettySize=auto;html=1;fontSize=12;fontColor=#000000;shadow=0;" parent="_vKOgibNYJb6RkX7hGH7-1" source="_vKOgibNYJb6RkX7hGH7-7" target="_vKOgibNYJb6RkX7hGH7-41" edge="1">
          <mxGeometry relative="1" as="geometry" />
        </mxCell>
        <mxCell id="_vKOgibNYJb6RkX7hGH7-47" style="edgeStyle=none;rounded=0;orthogonalLoop=1;jettySize=auto;html=1;fontSize=12;fontColor=#000000;shadow=0;" parent="_vKOgibNYJb6RkX7hGH7-1" source="_vKOgibNYJb6RkX7hGH7-7" target="_vKOgibNYJb6RkX7hGH7-40" edge="1">
          <mxGeometry relative="1" as="geometry" />
        </mxCell>
        <mxCell id="_vKOgibNYJb6RkX7hGH7-64" style="edgeStyle=none;rounded=0;jumpStyle=arc;orthogonalLoop=1;jettySize=auto;html=1;fontSize=12;fontColor=#000000;shadow=0;" parent="_vKOgibNYJb6RkX7hGH7-1" source="_vKOgibNYJb6RkX7hGH7-7" target="_vKOgibNYJb6RkX7hGH7-49" edge="1">
          <mxGeometry relative="1" as="geometry">
            <Array as="points">
              <mxPoint x="405" y="240" />
            </Array>
          </mxGeometry>
        </mxCell>
        <mxCell id="_vKOgibNYJb6RkX7hGH7-83" style="edgeStyle=none;rounded=0;jumpStyle=arc;orthogonalLoop=1;jettySize=auto;html=1;fontSize=12;fontColor=#000000;shadow=0;" parent="_vKOgibNYJb6RkX7hGH7-1" source="_vKOgibNYJb6RkX7hGH7-8" target="_vKOgibNYJb6RkX7hGH7-37" edge="1">
          <mxGeometry relative="1" as="geometry">
            <Array as="points">
              <mxPoint x="715" y="560" />
              <mxPoint x="1335" y="560" />
              <mxPoint x="1375" y="430" />
            </Array>
          </mxGeometry>
        </mxCell>
        <mxCell id="_vKOgibNYJb6RkX7hGH7-51" style="edgeStyle=none;rounded=0;orthogonalLoop=1;jettySize=auto;html=1;fontSize=12;fontColor=#000000;shadow=0;" parent="_vKOgibNYJb6RkX7hGH7-1" source="_vKOgibNYJb6RkX7hGH7-18" target="_vKOgibNYJb6RkX7hGH7-50" edge="1">
          <mxGeometry relative="1" as="geometry" />
        </mxCell>
        <mxCell id="_vKOgibNYJb6RkX7hGH7-84" style="edgeStyle=none;rounded=0;jumpStyle=arc;orthogonalLoop=1;jettySize=auto;html=1;fontSize=12;fontColor=#000000;shadow=0;" parent="_vKOgibNYJb6RkX7hGH7-1" source="_vKOgibNYJb6RkX7hGH7-29" target="_vKOgibNYJb6RkX7hGH7-7" edge="1">
          <mxGeometry relative="1" as="geometry">
            <Array as="points">
              <mxPoint x="455" y="120" />
              <mxPoint x="375" y="240" />
            </Array>
          </mxGeometry>
        </mxCell>
        <mxCell id="_vKOgibNYJb6RkX7hGH7-52" style="edgeStyle=none;rounded=0;orthogonalLoop=1;jettySize=auto;html=1;fontSize=12;fontColor=#000000;shadow=0;" parent="_vKOgibNYJb6RkX7hGH7-1" source="_vKOgibNYJb6RkX7hGH7-37" target="_vKOgibNYJb6RkX7hGH7-18" edge="1">
          <mxGeometry relative="1" as="geometry" />
        </mxCell>
        <mxCell id="_vKOgibNYJb6RkX7hGH7-53" style="edgeStyle=none;rounded=0;orthogonalLoop=1;jettySize=auto;html=1;fontSize=12;fontColor=#000000;shadow=0;" parent="_vKOgibNYJb6RkX7hGH7-1" source="_vKOgibNYJb6RkX7hGH7-37" target="_vKOgibNYJb6RkX7hGH7-27" edge="1">
          <mxGeometry relative="1" as="geometry" />
        </mxCell>
        <mxCell id="_vKOgibNYJb6RkX7hGH7-54" style="edgeStyle=none;rounded=0;orthogonalLoop=1;jettySize=auto;html=1;fontSize=12;fontColor=#000000;shadow=0;" parent="_vKOgibNYJb6RkX7hGH7-1" source="_vKOgibNYJb6RkX7hGH7-37" target="_vKOgibNYJb6RkX7hGH7-35" edge="1">
          <mxGeometry relative="1" as="geometry" />
        </mxCell>
        <mxCell id="_vKOgibNYJb6RkX7hGH7-55" style="edgeStyle=none;rounded=0;orthogonalLoop=1;jettySize=auto;html=1;fontSize=12;fontColor=#000000;shadow=0;" parent="_vKOgibNYJb6RkX7hGH7-1" source="_vKOgibNYJb6RkX7hGH7-37" target="_vKOgibNYJb6RkX7hGH7-29" edge="1">
          <mxGeometry relative="1" as="geometry" />
        </mxCell>
        <mxCell id="_vKOgibNYJb6RkX7hGH7-87" style="edgeStyle=none;rounded=0;jumpStyle=arc;orthogonalLoop=1;jettySize=auto;html=1;fontSize=12;fontColor=#000000;shadow=0;" parent="_vKOgibNYJb6RkX7hGH7-1" source="_vKOgibNYJb6RkX7hGH7-37" target="_vKOgibNYJb6RkX7hGH7-86" edge="1">
          <mxGeometry relative="1" as="geometry" />
        </mxCell>
        <mxCell id="_vKOgibNYJb6RkX7hGH7-101" style="edgeStyle=none;rounded=0;jumpStyle=arc;orthogonalLoop=1;jettySize=auto;html=1;fontSize=12;fontColor=#000000;shadow=0;" parent="_vKOgibNYJb6RkX7hGH7-1" source="_vKOgibNYJb6RkX7hGH7-37" target="_vKOgibNYJb6RkX7hGH7-100" edge="1">
          <mxGeometry relative="1" as="geometry" />
        </mxCell>
        <mxCell id="_vKOgibNYJb6RkX7hGH7-85" style="edgeStyle=none;rounded=0;jumpStyle=arc;orthogonalLoop=1;jettySize=auto;html=1;fontSize=12;fontColor=#000000;shadow=0;" parent="_vKOgibNYJb6RkX7hGH7-1" source="_vKOgibNYJb6RkX7hGH7-41" target="_vKOgibNYJb6RkX7hGH7-37" edge="1">
          <mxGeometry relative="1" as="geometry">
            <Array as="points">
              <mxPoint x="615" y="580" />
              <mxPoint x="1355" y="580" />
              <mxPoint x="1395" y="410" />
              <mxPoint x="1285" y="340" />
            </Array>
          </mxGeometry>
        </mxCell>
        <mxCell id="_vKOgibNYJb6RkX7hGH7-118" style="edgeStyle=none;rounded=0;jumpStyle=arc;orthogonalLoop=1;jettySize=auto;html=1;startArrow=none;startFill=0;endArrow=classic;endFill=1;fontSize=12;fontColor=#000000;shadow=0;" parent="_vKOgibNYJb6RkX7hGH7-1" source="_vKOgibNYJb6RkX7hGH7-44" target="_vKOgibNYJb6RkX7hGH7-37" edge="1">
          <mxGeometry relative="1" as="geometry">
            <Array as="points">
              <mxPoint x="705" y="570" />
              <mxPoint x="1345" y="570" />
              <mxPoint x="1385" y="420" />
              <mxPoint x="1295" y="365" />
            </Array>
          </mxGeometry>
        </mxCell>
        <mxCell id="vymDnyKPPEYszy0MNH52-3" value="Admin" style="shape=umlActor;verticalLabelPosition=bottom;verticalAlign=top;html=1;fontFamily=Helvetica;fontSize=12;align=center;strokeColor=#82b366;strokeWidth=1;fillColor=#00FF00;shadow=0;" parent="_vKOgibNYJb6RkX7hGH7-1" vertex="1">
          <mxGeometry x="125" y="460" width="30" height="60" as="geometry" />
        </mxCell>
        <mxCell id="vymDnyKPPEYszy0MNH52-4" value="User" style="shape=umlActor;verticalLabelPosition=bottom;verticalAlign=top;html=1;fontFamily=Helvetica;fontSize=12;align=center;strokeColor=#82b366;strokeWidth=1;fillColor=#00FF00;shadow=0;" parent="_vKOgibNYJb6RkX7hGH7-1" vertex="1">
          <mxGeometry x="268" y="462" width="30" height="60" as="geometry" />
        </mxCell>
        <mxCell id="0e71avUAFB-CbFEtWuvY-41" value="Author" style="shape=umlActor;verticalLabelPosition=bottom;verticalAlign=top;html=1;fontFamily=Helvetica;fontSize=12;align=center;strokeColor=#82b366;strokeWidth=1;fillColor=#00FF00;shadow=0;" parent="_vKOgibNYJb6RkX7hGH7-1" vertex="1">
          <mxGeometry x="197" y="461" width="30" height="60" as="geometry" />
        </mxCell>
        <mxCell id="N2ZiUpuptdByODm7h66X-4" style="edgeStyle=none;rounded=0;jumpStyle=arc;orthogonalLoop=1;jettySize=auto;html=1;fontSize=12;fontColor=#000000;entryX=1;entryY=0.5;entryDx=0;entryDy=0;exitX=0;exitY=0.3333333333333333;exitDx=0;exitDy=0;exitPerimeter=0;" parent="_vKOgibNYJb6RkX7hGH7-1" source="0e71avUAFB-CbFEtWuvY-5" target="iT8uw37pF2lnl41VGRrj-6" edge="1">
          <mxGeometry relative="1" as="geometry">
            <mxPoint x="1010" y="1214" as="sourcePoint" />
            <mxPoint x="855" y="1645" as="targetPoint" />
          </mxGeometry>
        </mxCell>
      </root>
    </mxGraphModel>
  </diagram>
</mxfile>
